<mxfile host="app.diagrams.net" agent="Mozilla/5.0 (X11; Linux x86_64) AppleWebKit/537.36 (KHTML, like Gecko) Chrome/125.0.0.0 Safari/537.36" version="24.7.17">
  <diagram name="第 1 页" id="ZWRC2w0TFUeUorTWZ9yR">
    <mxGraphModel dx="2837" dy="29" grid="1" gridSize="10" guides="1" tooltips="1" connect="1" arrows="1" fold="1" page="1" pageScale="1" pageWidth="827" pageHeight="1169" math="0" shadow="0">
      <root>
        <mxCell id="0" />
        <mxCell id="1" parent="0" />
        <mxCell id="dyWyHomLnpfcVi7wMT9M-77" value="" style="rounded=0;whiteSpace=wrap;html=1;" vertex="1" parent="1">
          <mxGeometry x="154" y="1362" width="146" height="78" as="geometry" />
        </mxCell>
        <mxCell id="dyWyHomLnpfcVi7wMT9M-4" value="&lt;b&gt;&lt;font style=&quot;font-size: 19px;&quot;&gt;W&lt;sub&gt;1&lt;/sub&gt;&lt;/font&gt;&lt;/b&gt;" style="rounded=0;whiteSpace=wrap;html=1;fillColor=#d5e8d4;strokeColor=#82b366;" vertex="1" parent="1">
          <mxGeometry x="181.5" y="1391" width="88.5" height="39" as="geometry" />
        </mxCell>
        <mxCell id="dyWyHomLnpfcVi7wMT9M-78" value="&lt;b&gt;&lt;font style=&quot;font-size: 17px;&quot;&gt;GPU0&lt;/font&gt;&lt;/b&gt;" style="text;html=1;align=center;verticalAlign=middle;whiteSpace=wrap;rounded=0;" vertex="1" parent="1">
          <mxGeometry x="197.75" y="1361" width="60" height="30" as="geometry" />
        </mxCell>
        <mxCell id="dyWyHomLnpfcVi7wMT9M-81" value="&lt;span style=&quot;font-size: 16px;&quot;&gt;&lt;b&gt;&lt;i&gt;In 1&lt;/i&gt;&lt;/b&gt;&lt;/span&gt;" style="rounded=0;whiteSpace=wrap;html=1;fillColor=#e1d5e7;strokeColor=#9673a6;" vertex="1" parent="1">
          <mxGeometry x="186.5" y="1450" width="82.5" height="36" as="geometry" />
        </mxCell>
        <mxCell id="dyWyHomLnpfcVi7wMT9M-101" value="&lt;span style=&quot;font-size: 16px;&quot;&gt;&lt;b&gt;&lt;i&gt;In 2&lt;/i&gt;&lt;/b&gt;&lt;/span&gt;" style="rounded=0;whiteSpace=wrap;html=1;fillColor=#e1d5e7;strokeColor=#9673a6;" vertex="1" parent="1">
          <mxGeometry x="90" y="1450" width="82.5" height="36" as="geometry" />
        </mxCell>
        <mxCell id="dyWyHomLnpfcVi7wMT9M-102" value="" style="group" vertex="1" connectable="0" parent="1">
          <mxGeometry x="654.25" y="1360" width="146" height="79" as="geometry" />
        </mxCell>
        <mxCell id="dyWyHomLnpfcVi7wMT9M-98" value="" style="rounded=0;whiteSpace=wrap;html=1;" vertex="1" parent="dyWyHomLnpfcVi7wMT9M-102">
          <mxGeometry y="1" width="146" height="78" as="geometry" />
        </mxCell>
        <mxCell id="dyWyHomLnpfcVi7wMT9M-99" value="&lt;b&gt;&lt;font style=&quot;font-size: 19px;&quot;&gt;W&lt;sub&gt;1&lt;/sub&gt;&lt;/font&gt;&lt;/b&gt;" style="rounded=0;whiteSpace=wrap;html=1;fillColor=#fff2cc;strokeColor=#d6b656;" vertex="1" parent="dyWyHomLnpfcVi7wMT9M-102">
          <mxGeometry x="27.5" y="30" width="88.5" height="39" as="geometry" />
        </mxCell>
        <mxCell id="dyWyHomLnpfcVi7wMT9M-100" value="&lt;b&gt;&lt;font style=&quot;font-size: 17px;&quot;&gt;GPU4&lt;/font&gt;&lt;/b&gt;" style="text;html=1;align=center;verticalAlign=middle;whiteSpace=wrap;rounded=0;" vertex="1" parent="dyWyHomLnpfcVi7wMT9M-102">
          <mxGeometry x="43.75" width="60" height="30" as="geometry" />
        </mxCell>
        <mxCell id="dyWyHomLnpfcVi7wMT9M-103" value="" style="group" vertex="1" connectable="0" parent="1">
          <mxGeometry x="486.25" y="1360" width="146" height="79" as="geometry" />
        </mxCell>
        <mxCell id="dyWyHomLnpfcVi7wMT9M-95" value="" style="rounded=0;whiteSpace=wrap;html=1;" vertex="1" parent="dyWyHomLnpfcVi7wMT9M-103">
          <mxGeometry y="1" width="146" height="78" as="geometry" />
        </mxCell>
        <mxCell id="dyWyHomLnpfcVi7wMT9M-96" value="&lt;b&gt;&lt;font style=&quot;font-size: 19px;&quot;&gt;W&lt;sub&gt;1&lt;/sub&gt;&lt;/font&gt;&lt;/b&gt;" style="rounded=0;whiteSpace=wrap;html=1;fillColor=#dae8fc;strokeColor=#6c8ebf;" vertex="1" parent="dyWyHomLnpfcVi7wMT9M-103">
          <mxGeometry x="27.5" y="30" width="88.5" height="39" as="geometry" />
        </mxCell>
        <mxCell id="dyWyHomLnpfcVi7wMT9M-97" value="&lt;b&gt;&lt;font style=&quot;font-size: 17px;&quot;&gt;GPU3&lt;/font&gt;&lt;/b&gt;" style="text;html=1;align=center;verticalAlign=middle;whiteSpace=wrap;rounded=0;" vertex="1" parent="dyWyHomLnpfcVi7wMT9M-103">
          <mxGeometry x="43.75" width="60" height="30" as="geometry" />
        </mxCell>
        <mxCell id="dyWyHomLnpfcVi7wMT9M-104" value="" style="group" vertex="1" connectable="0" parent="1">
          <mxGeometry x="320" y="1360" width="146" height="79" as="geometry" />
        </mxCell>
        <mxCell id="dyWyHomLnpfcVi7wMT9M-92" value="" style="rounded=0;whiteSpace=wrap;html=1;" vertex="1" parent="dyWyHomLnpfcVi7wMT9M-104">
          <mxGeometry y="1" width="146" height="78" as="geometry" />
        </mxCell>
        <mxCell id="dyWyHomLnpfcVi7wMT9M-93" value="&lt;b&gt;&lt;font style=&quot;font-size: 19px;&quot;&gt;W&lt;sub&gt;1&lt;/sub&gt;&lt;/font&gt;&lt;/b&gt;" style="rounded=0;whiteSpace=wrap;html=1;fillColor=#f8cecc;strokeColor=#b85450;" vertex="1" parent="dyWyHomLnpfcVi7wMT9M-104">
          <mxGeometry x="27.5" y="30" width="88.5" height="39" as="geometry" />
        </mxCell>
        <mxCell id="dyWyHomLnpfcVi7wMT9M-94" value="&lt;b&gt;&lt;font style=&quot;font-size: 17px;&quot;&gt;GPU1&lt;/font&gt;&lt;/b&gt;" style="text;html=1;align=center;verticalAlign=middle;whiteSpace=wrap;rounded=0;" vertex="1" parent="dyWyHomLnpfcVi7wMT9M-104">
          <mxGeometry x="43.75" width="60" height="30" as="geometry" />
        </mxCell>
        <mxCell id="dyWyHomLnpfcVi7wMT9M-105" value="&lt;span style=&quot;font-size: 16px;&quot;&gt;&lt;b&gt;&lt;i&gt;In 3&lt;/i&gt;&lt;/b&gt;&lt;/span&gt;" style="rounded=0;whiteSpace=wrap;html=1;fillColor=#e1d5e7;strokeColor=#9673a6;" vertex="1" parent="1">
          <mxGeometry x="-2.5" y="1450" width="82.5" height="36" as="geometry" />
        </mxCell>
        <mxCell id="dyWyHomLnpfcVi7wMT9M-106" value="&lt;span style=&quot;font-size: 16px;&quot;&gt;&lt;b&gt;&lt;i&gt;In 4&lt;/i&gt;&lt;/b&gt;&lt;/span&gt;" style="rounded=0;whiteSpace=wrap;html=1;fillColor=#e1d5e7;strokeColor=#9673a6;" vertex="1" parent="1">
          <mxGeometry x="-105" y="1450" width="82.5" height="36" as="geometry" />
        </mxCell>
        <mxCell id="dyWyHomLnpfcVi7wMT9M-108" value="" style="endArrow=none;dashed=1;html=1;dashPattern=1 3;strokeWidth=4;rounded=0;" edge="1" parent="1">
          <mxGeometry width="50" height="50" relative="1" as="geometry">
            <mxPoint x="-150" y="1470" as="sourcePoint" />
            <mxPoint x="-110" y="1470" as="targetPoint" />
          </mxGeometry>
        </mxCell>
        <mxCell id="dyWyHomLnpfcVi7wMT9M-109" value="" style="rounded=0;whiteSpace=wrap;html=1;" vertex="1" parent="1">
          <mxGeometry x="154" y="1502" width="146" height="78" as="geometry" />
        </mxCell>
        <mxCell id="dyWyHomLnpfcVi7wMT9M-110" value="&lt;b&gt;&lt;font style=&quot;font-size: 19px;&quot;&gt;W&lt;sub&gt;1&lt;/sub&gt;&lt;/font&gt;&lt;/b&gt;" style="rounded=0;whiteSpace=wrap;html=1;fillColor=#d5e8d4;strokeColor=#82b366;" vertex="1" parent="1">
          <mxGeometry x="181.5" y="1531" width="88.5" height="39" as="geometry" />
        </mxCell>
        <mxCell id="dyWyHomLnpfcVi7wMT9M-111" value="&lt;b&gt;&lt;font style=&quot;font-size: 17px;&quot;&gt;GPU0&lt;/font&gt;&lt;/b&gt;" style="text;html=1;align=center;verticalAlign=middle;whiteSpace=wrap;rounded=0;" vertex="1" parent="1">
          <mxGeometry x="197.75" y="1501" width="60" height="30" as="geometry" />
        </mxCell>
        <mxCell id="dyWyHomLnpfcVi7wMT9M-112" value="&lt;span style=&quot;font-size: 16px;&quot;&gt;&lt;b&gt;&lt;i&gt;In 1&lt;/i&gt;&lt;/b&gt;&lt;/span&gt;" style="rounded=0;whiteSpace=wrap;html=1;fillColor=#e1d5e7;strokeColor=#9673a6;" vertex="1" parent="1">
          <mxGeometry x="351.75" y="1590" width="82.5" height="36" as="geometry" />
        </mxCell>
        <mxCell id="dyWyHomLnpfcVi7wMT9M-113" value="&lt;span style=&quot;font-size: 16px;&quot;&gt;&lt;b&gt;&lt;i&gt;In 2&lt;/i&gt;&lt;/b&gt;&lt;/span&gt;" style="rounded=0;whiteSpace=wrap;html=1;fillColor=#e1d5e7;strokeColor=#9673a6;" vertex="1" parent="1">
          <mxGeometry x="179.75" y="1590" width="82.5" height="36" as="geometry" />
        </mxCell>
        <mxCell id="dyWyHomLnpfcVi7wMT9M-114" value="" style="group" vertex="1" connectable="0" parent="1">
          <mxGeometry x="654.25" y="1500" width="146" height="79" as="geometry" />
        </mxCell>
        <mxCell id="dyWyHomLnpfcVi7wMT9M-115" value="" style="rounded=0;whiteSpace=wrap;html=1;" vertex="1" parent="dyWyHomLnpfcVi7wMT9M-114">
          <mxGeometry y="1" width="146" height="78" as="geometry" />
        </mxCell>
        <mxCell id="dyWyHomLnpfcVi7wMT9M-116" value="&lt;b&gt;&lt;font style=&quot;font-size: 19px;&quot;&gt;W&lt;sub&gt;1&lt;/sub&gt;&lt;/font&gt;&lt;/b&gt;" style="rounded=0;whiteSpace=wrap;html=1;fillColor=#fff2cc;strokeColor=#d6b656;" vertex="1" parent="dyWyHomLnpfcVi7wMT9M-114">
          <mxGeometry x="27.5" y="30" width="88.5" height="39" as="geometry" />
        </mxCell>
        <mxCell id="dyWyHomLnpfcVi7wMT9M-117" value="&lt;b&gt;&lt;font style=&quot;font-size: 17px;&quot;&gt;GPU4&lt;/font&gt;&lt;/b&gt;" style="text;html=1;align=center;verticalAlign=middle;whiteSpace=wrap;rounded=0;" vertex="1" parent="dyWyHomLnpfcVi7wMT9M-114">
          <mxGeometry x="43.75" width="60" height="30" as="geometry" />
        </mxCell>
        <mxCell id="dyWyHomLnpfcVi7wMT9M-118" value="" style="group" vertex="1" connectable="0" parent="1">
          <mxGeometry x="486.25" y="1500" width="146" height="79" as="geometry" />
        </mxCell>
        <mxCell id="dyWyHomLnpfcVi7wMT9M-119" value="" style="rounded=0;whiteSpace=wrap;html=1;" vertex="1" parent="dyWyHomLnpfcVi7wMT9M-118">
          <mxGeometry y="1" width="146" height="78" as="geometry" />
        </mxCell>
        <mxCell id="dyWyHomLnpfcVi7wMT9M-120" value="&lt;b&gt;&lt;font style=&quot;font-size: 19px;&quot;&gt;W&lt;sub&gt;1&lt;/sub&gt;&lt;/font&gt;&lt;/b&gt;" style="rounded=0;whiteSpace=wrap;html=1;fillColor=#dae8fc;strokeColor=#6c8ebf;" vertex="1" parent="dyWyHomLnpfcVi7wMT9M-118">
          <mxGeometry x="27.5" y="30" width="88.5" height="39" as="geometry" />
        </mxCell>
        <mxCell id="dyWyHomLnpfcVi7wMT9M-121" value="&lt;b&gt;&lt;font style=&quot;font-size: 17px;&quot;&gt;GPU3&lt;/font&gt;&lt;/b&gt;" style="text;html=1;align=center;verticalAlign=middle;whiteSpace=wrap;rounded=0;" vertex="1" parent="dyWyHomLnpfcVi7wMT9M-118">
          <mxGeometry x="43.75" width="60" height="30" as="geometry" />
        </mxCell>
        <mxCell id="dyWyHomLnpfcVi7wMT9M-122" value="" style="group" vertex="1" connectable="0" parent="1">
          <mxGeometry x="320" y="1500" width="146" height="79" as="geometry" />
        </mxCell>
        <mxCell id="dyWyHomLnpfcVi7wMT9M-123" value="" style="rounded=0;whiteSpace=wrap;html=1;" vertex="1" parent="dyWyHomLnpfcVi7wMT9M-122">
          <mxGeometry y="1" width="146" height="78" as="geometry" />
        </mxCell>
        <mxCell id="dyWyHomLnpfcVi7wMT9M-124" value="&lt;b&gt;&lt;font style=&quot;font-size: 19px;&quot;&gt;W&lt;sub&gt;1&lt;/sub&gt;&lt;/font&gt;&lt;/b&gt;" style="rounded=0;whiteSpace=wrap;html=1;fillColor=#f8cecc;strokeColor=#b85450;" vertex="1" parent="dyWyHomLnpfcVi7wMT9M-122">
          <mxGeometry x="27.5" y="30" width="88.5" height="39" as="geometry" />
        </mxCell>
        <mxCell id="dyWyHomLnpfcVi7wMT9M-125" value="&lt;b&gt;&lt;font style=&quot;font-size: 17px;&quot;&gt;GPU1&lt;/font&gt;&lt;/b&gt;" style="text;html=1;align=center;verticalAlign=middle;whiteSpace=wrap;rounded=0;" vertex="1" parent="dyWyHomLnpfcVi7wMT9M-122">
          <mxGeometry x="43.75" width="60" height="30" as="geometry" />
        </mxCell>
        <mxCell id="dyWyHomLnpfcVi7wMT9M-126" value="&lt;span style=&quot;font-size: 16px;&quot;&gt;&lt;b&gt;&lt;i&gt;In 3&lt;/i&gt;&lt;/b&gt;&lt;/span&gt;" style="rounded=0;whiteSpace=wrap;html=1;fillColor=#e1d5e7;strokeColor=#9673a6;" vertex="1" parent="1">
          <mxGeometry x="87.25" y="1590" width="82.5" height="36" as="geometry" />
        </mxCell>
        <mxCell id="dyWyHomLnpfcVi7wMT9M-127" value="&lt;span style=&quot;font-size: 16px;&quot;&gt;&lt;b&gt;&lt;i&gt;In 4&lt;/i&gt;&lt;/b&gt;&lt;/span&gt;" style="rounded=0;whiteSpace=wrap;html=1;fillColor=#e1d5e7;strokeColor=#9673a6;" vertex="1" parent="1">
          <mxGeometry x="-15.25" y="1590" width="82.5" height="36" as="geometry" />
        </mxCell>
        <mxCell id="dyWyHomLnpfcVi7wMT9M-128" value="" style="endArrow=none;dashed=1;html=1;dashPattern=1 3;strokeWidth=4;rounded=0;" edge="1" parent="1">
          <mxGeometry width="50" height="50" relative="1" as="geometry">
            <mxPoint x="-60.25" y="1628" as="sourcePoint" />
            <mxPoint x="-20.25" y="1628" as="targetPoint" />
          </mxGeometry>
        </mxCell>
        <mxCell id="dyWyHomLnpfcVi7wMT9M-129" value="" style="rounded=0;whiteSpace=wrap;html=1;" vertex="1" parent="1">
          <mxGeometry x="154" y="1648" width="146" height="78" as="geometry" />
        </mxCell>
        <mxCell id="dyWyHomLnpfcVi7wMT9M-130" value="&lt;b&gt;&lt;font style=&quot;font-size: 19px;&quot;&gt;W&lt;sub&gt;1&lt;/sub&gt;&lt;/font&gt;&lt;/b&gt;" style="rounded=0;whiteSpace=wrap;html=1;fillColor=#d5e8d4;strokeColor=#82b366;" vertex="1" parent="1">
          <mxGeometry x="181.5" y="1677" width="88.5" height="39" as="geometry" />
        </mxCell>
        <mxCell id="dyWyHomLnpfcVi7wMT9M-131" value="&lt;b&gt;&lt;font style=&quot;font-size: 17px;&quot;&gt;GPU0&lt;/font&gt;&lt;/b&gt;" style="text;html=1;align=center;verticalAlign=middle;whiteSpace=wrap;rounded=0;" vertex="1" parent="1">
          <mxGeometry x="197.75" y="1647" width="60" height="30" as="geometry" />
        </mxCell>
        <mxCell id="dyWyHomLnpfcVi7wMT9M-132" value="&lt;span style=&quot;font-size: 16px;&quot;&gt;&lt;b&gt;&lt;i&gt;In 1&lt;/i&gt;&lt;/b&gt;&lt;/span&gt;" style="rounded=0;whiteSpace=wrap;html=1;fillColor=#e1d5e7;strokeColor=#9673a6;" vertex="1" parent="1">
          <mxGeometry x="518" y="1740" width="82.5" height="36" as="geometry" />
        </mxCell>
        <mxCell id="dyWyHomLnpfcVi7wMT9M-133" value="&lt;span style=&quot;font-size: 16px;&quot;&gt;&lt;b&gt;&lt;i&gt;In 2&lt;/i&gt;&lt;/b&gt;&lt;/span&gt;" style="rounded=0;whiteSpace=wrap;html=1;fillColor=#e1d5e7;strokeColor=#9673a6;" vertex="1" parent="1">
          <mxGeometry x="351.75" y="1740" width="82.5" height="36" as="geometry" />
        </mxCell>
        <mxCell id="dyWyHomLnpfcVi7wMT9M-134" value="" style="group" vertex="1" connectable="0" parent="1">
          <mxGeometry x="654.25" y="1646" width="146" height="79" as="geometry" />
        </mxCell>
        <mxCell id="dyWyHomLnpfcVi7wMT9M-135" value="" style="rounded=0;whiteSpace=wrap;html=1;" vertex="1" parent="dyWyHomLnpfcVi7wMT9M-134">
          <mxGeometry y="1" width="146" height="78" as="geometry" />
        </mxCell>
        <mxCell id="dyWyHomLnpfcVi7wMT9M-136" value="&lt;b&gt;&lt;font style=&quot;font-size: 19px;&quot;&gt;W&lt;sub&gt;1&lt;/sub&gt;&lt;/font&gt;&lt;/b&gt;" style="rounded=0;whiteSpace=wrap;html=1;fillColor=#fff2cc;strokeColor=#d6b656;" vertex="1" parent="dyWyHomLnpfcVi7wMT9M-134">
          <mxGeometry x="27.5" y="30" width="88.5" height="39" as="geometry" />
        </mxCell>
        <mxCell id="dyWyHomLnpfcVi7wMT9M-137" value="&lt;b&gt;&lt;font style=&quot;font-size: 17px;&quot;&gt;GPU4&lt;/font&gt;&lt;/b&gt;" style="text;html=1;align=center;verticalAlign=middle;whiteSpace=wrap;rounded=0;" vertex="1" parent="dyWyHomLnpfcVi7wMT9M-134">
          <mxGeometry x="43.75" width="60" height="30" as="geometry" />
        </mxCell>
        <mxCell id="dyWyHomLnpfcVi7wMT9M-138" value="" style="group" vertex="1" connectable="0" parent="1">
          <mxGeometry x="486.25" y="1646" width="146" height="79" as="geometry" />
        </mxCell>
        <mxCell id="dyWyHomLnpfcVi7wMT9M-139" value="" style="rounded=0;whiteSpace=wrap;html=1;" vertex="1" parent="dyWyHomLnpfcVi7wMT9M-138">
          <mxGeometry y="1" width="146" height="78" as="geometry" />
        </mxCell>
        <mxCell id="dyWyHomLnpfcVi7wMT9M-140" value="&lt;b&gt;&lt;font style=&quot;font-size: 19px;&quot;&gt;W&lt;sub&gt;1&lt;/sub&gt;&lt;/font&gt;&lt;/b&gt;" style="rounded=0;whiteSpace=wrap;html=1;fillColor=#dae8fc;strokeColor=#6c8ebf;" vertex="1" parent="dyWyHomLnpfcVi7wMT9M-138">
          <mxGeometry x="27.5" y="30" width="88.5" height="39" as="geometry" />
        </mxCell>
        <mxCell id="dyWyHomLnpfcVi7wMT9M-141" value="&lt;b&gt;&lt;font style=&quot;font-size: 17px;&quot;&gt;GPU3&lt;/font&gt;&lt;/b&gt;" style="text;html=1;align=center;verticalAlign=middle;whiteSpace=wrap;rounded=0;" vertex="1" parent="dyWyHomLnpfcVi7wMT9M-138">
          <mxGeometry x="43.75" width="60" height="30" as="geometry" />
        </mxCell>
        <mxCell id="dyWyHomLnpfcVi7wMT9M-142" value="" style="group" vertex="1" connectable="0" parent="1">
          <mxGeometry x="320" y="1646" width="146" height="79" as="geometry" />
        </mxCell>
        <mxCell id="dyWyHomLnpfcVi7wMT9M-143" value="" style="rounded=0;whiteSpace=wrap;html=1;" vertex="1" parent="dyWyHomLnpfcVi7wMT9M-142">
          <mxGeometry y="1" width="146" height="78" as="geometry" />
        </mxCell>
        <mxCell id="dyWyHomLnpfcVi7wMT9M-144" value="&lt;b&gt;&lt;font style=&quot;font-size: 19px;&quot;&gt;W&lt;sub&gt;1&lt;/sub&gt;&lt;/font&gt;&lt;/b&gt;" style="rounded=0;whiteSpace=wrap;html=1;fillColor=#f8cecc;strokeColor=#b85450;" vertex="1" parent="dyWyHomLnpfcVi7wMT9M-142">
          <mxGeometry x="27.5" y="30" width="88.5" height="39" as="geometry" />
        </mxCell>
        <mxCell id="dyWyHomLnpfcVi7wMT9M-145" value="&lt;b&gt;&lt;font style=&quot;font-size: 17px;&quot;&gt;GPU1&lt;/font&gt;&lt;/b&gt;" style="text;html=1;align=center;verticalAlign=middle;whiteSpace=wrap;rounded=0;" vertex="1" parent="dyWyHomLnpfcVi7wMT9M-142">
          <mxGeometry x="43.75" width="60" height="30" as="geometry" />
        </mxCell>
        <mxCell id="dyWyHomLnpfcVi7wMT9M-146" value="&lt;span style=&quot;font-size: 16px;&quot;&gt;&lt;b&gt;&lt;i&gt;In 3&lt;/i&gt;&lt;/b&gt;&lt;/span&gt;" style="rounded=0;whiteSpace=wrap;html=1;fillColor=#e1d5e7;strokeColor=#9673a6;" vertex="1" parent="1">
          <mxGeometry x="187.5" y="1740" width="82.5" height="36" as="geometry" />
        </mxCell>
        <mxCell id="dyWyHomLnpfcVi7wMT9M-147" value="&lt;span style=&quot;font-size: 16px;&quot;&gt;&lt;b&gt;&lt;i&gt;In 4&lt;/i&gt;&lt;/b&gt;&lt;/span&gt;" style="rounded=0;whiteSpace=wrap;html=1;fillColor=#e1d5e7;strokeColor=#9673a6;" vertex="1" parent="1">
          <mxGeometry x="86" y="1740" width="82.5" height="36" as="geometry" />
        </mxCell>
        <mxCell id="dyWyHomLnpfcVi7wMT9M-148" value="" style="endArrow=none;dashed=1;html=1;dashPattern=1 3;strokeWidth=4;rounded=0;" edge="1" parent="1">
          <mxGeometry width="50" height="50" relative="1" as="geometry">
            <mxPoint x="41" y="1760" as="sourcePoint" />
            <mxPoint x="81" y="1760" as="targetPoint" />
          </mxGeometry>
        </mxCell>
        <mxCell id="dyWyHomLnpfcVi7wMT9M-209" value="" style="rounded=0;whiteSpace=wrap;html=1;" vertex="1" parent="1">
          <mxGeometry x="164" y="1802" width="146" height="78" as="geometry" />
        </mxCell>
        <mxCell id="dyWyHomLnpfcVi7wMT9M-210" value="&lt;b&gt;&lt;font style=&quot;font-size: 19px;&quot;&gt;W&lt;sub&gt;1&lt;/sub&gt;&lt;/font&gt;&lt;/b&gt;" style="rounded=0;whiteSpace=wrap;html=1;fillColor=#d5e8d4;strokeColor=#82b366;" vertex="1" parent="1">
          <mxGeometry x="191.5" y="1831" width="88.5" height="39" as="geometry" />
        </mxCell>
        <mxCell id="dyWyHomLnpfcVi7wMT9M-211" value="&lt;b&gt;&lt;font style=&quot;font-size: 17px;&quot;&gt;GPU0&lt;/font&gt;&lt;/b&gt;" style="text;html=1;align=center;verticalAlign=middle;whiteSpace=wrap;rounded=0;" vertex="1" parent="1">
          <mxGeometry x="207.75" y="1801" width="60" height="30" as="geometry" />
        </mxCell>
        <mxCell id="dyWyHomLnpfcVi7wMT9M-212" value="&lt;span style=&quot;font-size: 16px;&quot;&gt;&lt;b&gt;&lt;i&gt;In 1&lt;/i&gt;&lt;/b&gt;&lt;/span&gt;" style="rounded=0;whiteSpace=wrap;html=1;fillColor=#e1d5e7;strokeColor=#9673a6;" vertex="1" parent="1">
          <mxGeometry x="696" y="1900" width="82.5" height="36" as="geometry" />
        </mxCell>
        <mxCell id="dyWyHomLnpfcVi7wMT9M-213" value="&lt;span style=&quot;font-size: 16px;&quot;&gt;&lt;b&gt;&lt;i&gt;In 2&lt;/i&gt;&lt;/b&gt;&lt;/span&gt;" style="rounded=0;whiteSpace=wrap;html=1;fillColor=#e1d5e7;strokeColor=#9673a6;" vertex="1" parent="1">
          <mxGeometry x="528" y="1900" width="82.5" height="36" as="geometry" />
        </mxCell>
        <mxCell id="dyWyHomLnpfcVi7wMT9M-214" value="" style="group" vertex="1" connectable="0" parent="1">
          <mxGeometry x="664.25" y="1800" width="146" height="79" as="geometry" />
        </mxCell>
        <mxCell id="dyWyHomLnpfcVi7wMT9M-215" value="" style="rounded=0;whiteSpace=wrap;html=1;" vertex="1" parent="dyWyHomLnpfcVi7wMT9M-214">
          <mxGeometry y="1" width="146" height="78" as="geometry" />
        </mxCell>
        <mxCell id="dyWyHomLnpfcVi7wMT9M-216" value="&lt;b&gt;&lt;font style=&quot;font-size: 19px;&quot;&gt;W&lt;sub&gt;1&lt;/sub&gt;&lt;/font&gt;&lt;/b&gt;" style="rounded=0;whiteSpace=wrap;html=1;fillColor=#fff2cc;strokeColor=#d6b656;" vertex="1" parent="dyWyHomLnpfcVi7wMT9M-214">
          <mxGeometry x="27.5" y="30" width="88.5" height="39" as="geometry" />
        </mxCell>
        <mxCell id="dyWyHomLnpfcVi7wMT9M-217" value="&lt;b&gt;&lt;font style=&quot;font-size: 17px;&quot;&gt;GPU4&lt;/font&gt;&lt;/b&gt;" style="text;html=1;align=center;verticalAlign=middle;whiteSpace=wrap;rounded=0;" vertex="1" parent="dyWyHomLnpfcVi7wMT9M-214">
          <mxGeometry x="43.75" width="60" height="30" as="geometry" />
        </mxCell>
        <mxCell id="dyWyHomLnpfcVi7wMT9M-218" value="" style="group" vertex="1" connectable="0" parent="1">
          <mxGeometry x="496.25" y="1800" width="146" height="79" as="geometry" />
        </mxCell>
        <mxCell id="dyWyHomLnpfcVi7wMT9M-219" value="" style="rounded=0;whiteSpace=wrap;html=1;" vertex="1" parent="dyWyHomLnpfcVi7wMT9M-218">
          <mxGeometry y="1" width="146" height="78" as="geometry" />
        </mxCell>
        <mxCell id="dyWyHomLnpfcVi7wMT9M-220" value="&lt;b&gt;&lt;font style=&quot;font-size: 19px;&quot;&gt;W&lt;sub&gt;1&lt;/sub&gt;&lt;/font&gt;&lt;/b&gt;" style="rounded=0;whiteSpace=wrap;html=1;fillColor=#dae8fc;strokeColor=#6c8ebf;" vertex="1" parent="dyWyHomLnpfcVi7wMT9M-218">
          <mxGeometry x="27.5" y="30" width="88.5" height="39" as="geometry" />
        </mxCell>
        <mxCell id="dyWyHomLnpfcVi7wMT9M-221" value="&lt;b&gt;&lt;font style=&quot;font-size: 17px;&quot;&gt;GPU3&lt;/font&gt;&lt;/b&gt;" style="text;html=1;align=center;verticalAlign=middle;whiteSpace=wrap;rounded=0;" vertex="1" parent="dyWyHomLnpfcVi7wMT9M-218">
          <mxGeometry x="43.75" width="60" height="30" as="geometry" />
        </mxCell>
        <mxCell id="dyWyHomLnpfcVi7wMT9M-222" value="" style="group" vertex="1" connectable="0" parent="1">
          <mxGeometry x="330" y="1800" width="146" height="79" as="geometry" />
        </mxCell>
        <mxCell id="dyWyHomLnpfcVi7wMT9M-223" value="" style="rounded=0;whiteSpace=wrap;html=1;" vertex="1" parent="dyWyHomLnpfcVi7wMT9M-222">
          <mxGeometry y="1" width="146" height="78" as="geometry" />
        </mxCell>
        <mxCell id="dyWyHomLnpfcVi7wMT9M-224" value="&lt;b&gt;&lt;font style=&quot;font-size: 19px;&quot;&gt;W&lt;sub&gt;1&lt;/sub&gt;&lt;/font&gt;&lt;/b&gt;" style="rounded=0;whiteSpace=wrap;html=1;fillColor=#f8cecc;strokeColor=#b85450;" vertex="1" parent="dyWyHomLnpfcVi7wMT9M-222">
          <mxGeometry x="27.5" y="30" width="88.5" height="39" as="geometry" />
        </mxCell>
        <mxCell id="dyWyHomLnpfcVi7wMT9M-225" value="&lt;b&gt;&lt;font style=&quot;font-size: 17px;&quot;&gt;GPU1&lt;/font&gt;&lt;/b&gt;" style="text;html=1;align=center;verticalAlign=middle;whiteSpace=wrap;rounded=0;" vertex="1" parent="dyWyHomLnpfcVi7wMT9M-222">
          <mxGeometry x="43.75" width="60" height="30" as="geometry" />
        </mxCell>
        <mxCell id="dyWyHomLnpfcVi7wMT9M-226" value="&lt;span style=&quot;font-size: 16px;&quot;&gt;&lt;b&gt;&lt;i&gt;In 3&lt;/i&gt;&lt;/b&gt;&lt;/span&gt;" style="rounded=0;whiteSpace=wrap;html=1;fillColor=#e1d5e7;strokeColor=#9673a6;" vertex="1" parent="1">
          <mxGeometry x="361.75" y="1900" width="82.5" height="36" as="geometry" />
        </mxCell>
        <mxCell id="dyWyHomLnpfcVi7wMT9M-227" value="&lt;span style=&quot;font-size: 16px;&quot;&gt;&lt;b&gt;&lt;i&gt;In 4&lt;/i&gt;&lt;/b&gt;&lt;/span&gt;" style="rounded=0;whiteSpace=wrap;html=1;fillColor=#e1d5e7;strokeColor=#9673a6;" vertex="1" parent="1">
          <mxGeometry x="191.5" y="1900" width="82.5" height="36" as="geometry" />
        </mxCell>
        <mxCell id="dyWyHomLnpfcVi7wMT9M-228" value="" style="endArrow=none;dashed=1;html=1;dashPattern=1 3;strokeWidth=4;rounded=0;" edge="1" parent="1">
          <mxGeometry width="50" height="50" relative="1" as="geometry">
            <mxPoint x="132.5" y="1917.29" as="sourcePoint" />
            <mxPoint x="172.5" y="1917.29" as="targetPoint" />
          </mxGeometry>
        </mxCell>
        <mxCell id="dyWyHomLnpfcVi7wMT9M-229" value="&lt;b&gt;&lt;i&gt;&lt;font style=&quot;font-size: 22px;&quot;&gt;time step 1&lt;/font&gt;&lt;/i&gt;&lt;/b&gt;" style="text;html=1;align=center;verticalAlign=middle;whiteSpace=wrap;rounded=0;" vertex="1" parent="1">
          <mxGeometry x="827" y="1395.5" width="141" height="30" as="geometry" />
        </mxCell>
        <mxCell id="dyWyHomLnpfcVi7wMT9M-230" value="&lt;b&gt;&lt;i&gt;&lt;font style=&quot;font-size: 22px;&quot;&gt;time step 2&lt;/font&gt;&lt;/i&gt;&lt;/b&gt;" style="text;html=1;align=center;verticalAlign=middle;whiteSpace=wrap;rounded=0;" vertex="1" parent="1">
          <mxGeometry x="824" y="1540" width="141" height="30" as="geometry" />
        </mxCell>
        <mxCell id="dyWyHomLnpfcVi7wMT9M-231" value="&lt;b&gt;&lt;i&gt;&lt;font style=&quot;font-size: 22px;&quot;&gt;time step 3&lt;/font&gt;&lt;/i&gt;&lt;/b&gt;" style="text;html=1;align=center;verticalAlign=middle;whiteSpace=wrap;rounded=0;" vertex="1" parent="1">
          <mxGeometry x="827" y="1677" width="141" height="30" as="geometry" />
        </mxCell>
        <mxCell id="dyWyHomLnpfcVi7wMT9M-232" value="&lt;b&gt;&lt;i&gt;&lt;font style=&quot;font-size: 22px;&quot;&gt;time step 4&lt;/font&gt;&lt;/i&gt;&lt;/b&gt;" style="text;html=1;align=center;verticalAlign=middle;whiteSpace=wrap;rounded=0;" vertex="1" parent="1">
          <mxGeometry x="827" y="1820" width="141" height="30" as="geometry" />
        </mxCell>
      </root>
    </mxGraphModel>
  </diagram>
</mxfile>
